# xmcd
#
# Track frame offsets:
#	150
#	11287
#	22820
#	33982
#	43715
#	56305
#	65190
#	79472
#	89260
#	101227
#	110820
#	121447
#	135237
#	145290
#	155802
#	165687
#	174542
#	187067
#	196967
#	208592
#	218707
#	229732
#	240127
#	248647
#	261990
#	273067
#	284667
#	293700
#	304777
#	315027
#
# Disc length: 4356
#
# Revision: 1
# Processed by: cddbd v1.5.1PL0 Copyright (c) Steve Scherf et al.
# Submitted via: dBpowerAMP V4.0
# Normalized: r0:TDELIM( - )
#
DISCID=ab11021e
DTITLE=Various Artist - Western Dance Vol 1
DYEAR=1900
DGENRE=Country
TTITLE0=Maddox Brothers and Rose - Stop Whistlin' Wolf
TTITLE1=Pee Wee King - Plantation Boogie
TTITLE2=Jerry Reed - When I Found You
TTITLE3=Tommy Scott - When I Found You
TTITLE4=Jack Guthrie - Oklahoma Hills
TTITLE5=Andy Doll - Gotta Have You
TTITLE6=Bob Wills and The Texas Playboys - Take The "A" Train
TTITLE7=Tennessee Ernie Ford - Country Junction
TTITLE8=Tommy Sosebee - Barber Shop Boogie
TTITLE9=The Carlisles - Busy Body Boogie
TTITLE10=Wade Ray - Idaho Red
TTITLE11=Frankie Starr - Elevator Baby
TTITLE12=Janis Martin - Barefoot Baby
TTITLE13=Kenny Parchman - You Call Everybody Baby
TTITLE14=Merrill E Moore - King Porter Stomp
TTITLE15=Curly Coldron - King Porter Stomp
TTITLE16=Eddie Clitero and The Roundup Boys - Flying Saucer Boogie
TTITLE17=Maddox Brothers and Rose - South
TTITLE18=Pee Wee King - Ten Gallon Boogie
TTITLE19=Jerry Reed - I've Had Enough
TTITLE20=Jack Guthrie - Oakie Boogie
TTITLE21=Merrill E Moore - Buttermilk Baby
TTITLE22=Tennessee Ernie Ford - Blackberry Boogie
TTITLE23=Red Foley - Birmingham Bounce
TTITLE24=The Carlisles - No Help Wanted
TTITLE25=Hank Penny - You Played On My Piano
TTITLE26=The Tunesmiths - Baby I'm Ready
TTITLE27=Lee Bell - Beatin' Out The Boogie
TTITLE28=Tennessee Ernie Ford - Smokey Mountain Boogie
TTITLE29=Arkie Shibley and His Mountain Dew Boys - Dusty Blossom Boogie
EXTD=This is actually more Hillbilly than country
EXTT0=
EXTT1=
EXTT2=
EXTT3=
EXTT4=
EXTT5=
EXTT6=
EXTT7=
EXTT8=
EXTT9=
EXTT10=
EXTT11=
EXTT12=
EXTT13=
EXTT14=
EXTT15=
EXTT16=
EXTT17=
EXTT18=
EXTT19=
EXTT20=
EXTT21=
EXTT22=
EXTT23=
EXTT24=
EXTT25=
EXTT26=
EXTT27=
EXTT28=
EXTT29=
PLAYORDER=
